<?xml version="1.0" encoding="utf-8"?>
<!-- Generator: Adobe Illustrator 19.0.0, SVG Export Plug-In . SVG Version: 6.00 Build 0)  -->
<svg version="1.1" id="Capa_1" xmlns="http://www.w3.org/2000/svg" xmlns:xlink="http://www.w3.org/1999/xlink" x="0px" y="0px"
	 viewBox="-1385 1385.7 64 64" style="enable-background:new -1385 1385.7 64 64;" xml:space="preserve">
<path d="M-1369,1411.3c2.1-8.5,7.5-12.8,16-12.8c12.8,0,14.4,9.6,20.8,11.2c4.3,1.1,8-0.5,11.2-4.8c-2.1,8.5-7.5,12.8-16,12.8
	c-12.8,0-14.4-9.6-20.8-11.2C-1362.1,1405.4-1365.8,1407-1369,1411.3z M-1385,1430.5c2.1-8.5,7.5-12.8,16-12.8
	c12.8,0,14.4,9.6,20.8,11.2c4.3,1.1,8-0.5,11.2-4.8c-2.1,8.5-7.5,12.8-16,12.8c-12.8,0-14.4-9.6-20.8-11.2
	C-1378.1,1424.6-1381.8,1426.2-1385,1430.5z"/>
</svg>
